<?xml version="1.0" encoding="UTF-8" standalone="no"?>
<svg
   xmlns:dc="http://purl.org/dc/elements/1.1/"
   xmlns:cc="http://creativecommons.org/ns#"
   xmlns:rdf="http://www.w3.org/1999/02/22-rdf-syntax-ns#"
   xmlns:svg="http://www.w3.org/2000/svg"
   xmlns="http://www.w3.org/2000/svg"
   version="1.1"
   id="svg4436"
   viewBox="0 0 229.2625 92.236253"
   height="26.03112mm"
   width="64.702972mm">
  <defs
     id="defs4438" />
  <metadata
     id="metadata4441">
    <rdf:RDF>
      <cc:Work
         rdf:about="">
        <dc:format>image/svg+xml</dc:format>
        <dc:type
           rdf:resource="http://purl.org/dc/dcmitype/StillImage" />
        <dc:title></dc:title>
      </cc:Work>
    </rdf:RDF>
  </metadata>
  <g
     transform="translate(-242.51085,-409.10234)"
     id="layer1">
    <g
       transform="matrix(1.25,0,0,-1.25,392.1921,489.03359)"
       id="g90">
      <path
         id="path92"
         style="fill:#2c3e50;fill-opacity:1;fill-rule:nonzero;stroke:none"
         d="m 0,0 -0.004,-0.025 -55.175,0 -62.988,0 -0.314,-2 -0.009,0 -1.255,-7.819 172.153,0 L 54.218,0 0,0 Z" />
    </g>
    <g
       transform="matrix(1.25,0,0,-1.25,330.66135,491.51647)"
       id="g94">
      <path
         id="path96"
         style="fill:#18bc9c;fill-opacity:1;fill-rule:nonzero;stroke:none"
         d="m 0,0 0,-2 104.713,0 0.368,2 L 0,0 Z" />
    </g>
    <g
       transform="matrix(1.25,0,0,-1.25,325.65648,494.01896)"
       id="g98">
      <path
         id="path100"
         style="fill:#f39c12;fill-opacity:1;fill-rule:nonzero;stroke:none"
         d="m 0,0 0,-2 110.352,0 0.367,2 L 0,0 Z" />
    </g>
    <g
       transform="matrix(1.25,0,0,-1.25,343.1736,496.52134)"
       id="g102">
      <path
         id="path104"
         style="fill:#e74c3c;fill-opacity:1;fill-rule:nonzero;stroke:none"
         d="M 0,0 0,-2 94.97,-2 95.337,0 0,0 Z" />
    </g>
    <path
       id="path106"
       style="fill:#18bc9c;fill-opacity:1;fill-rule:nonzero;stroke:none"
       d="m 327.53223,494.01684 -4.79125,0 0,-2.5 4.79125,0 0,2.5 z" />
    <path
       id="path108"
       style="fill:#18bc9c;fill-opacity:1;fill-rule:nonzero;stroke:none"
       d="m 319.61598,494.01684 -2.91625,0 0,-2.5 2.91625,0 0,2.5 z" />
    <path
       id="path110"
       style="fill:#18bc9c;fill-opacity:1;fill-rule:nonzero;stroke:none"
       d="m 312.94973,494.01684 -10.20875,0 0,-2.5 10.20875,0 0,2.5 z" />
    <path
       id="path112"
       style="fill:#18bc9c;fill-opacity:1;fill-rule:nonzero;stroke:none"
       d="m 299.61598,494.01684 -2.70875,0 0,-2.5 2.70875,0 0,2.5 z" />
    <path
       id="path114"
       style="fill:#f39c12;fill-opacity:1;fill-rule:nonzero;stroke:none"
       d="m 322.74098,496.51934 -9.79125,0 0,-2.5 9.79125,0 0,2.5 z" />
    <path
       id="path116"
       style="fill:#f39c12;fill-opacity:1;fill-rule:nonzero;stroke:none"
       d="m 310.09598,496.51934 -4.64625,0 0,-2.5 4.64625,0 0,2.5 z" />
    <path
       id="path118"
       style="fill:#f39c12;fill-opacity:1;fill-rule:nonzero;stroke:none"
       d="m 301.90723,496.51934 -7.91625,0 0,-2.5 7.91625,0 0,2.5 z" />
    <path
       id="path120"
       style="fill:#f39c12;fill-opacity:1;fill-rule:nonzero;stroke:none"
       d="m 291.66223,496.51934 -2.4625,0 0,-2.5 2.4625,0 0,2.5 z" />
    <path
       id="path122"
       style="fill:#e74c3c;fill-opacity:1;fill-rule:nonzero;stroke:none"
       d="m 341.49098,499.02184 -6.45875,0 0,-2.5 6.45875,0 0,2.5 z" />
    <path
       id="path124"
       style="fill:#e74c3c;fill-opacity:1;fill-rule:nonzero;stroke:none"
       d="m 330.66098,499.02184 -2.1325,0 0,-2.5 2.1325,0 0,2.5 z" />
    <path
       id="path126"
       style="fill:#e74c3c;fill-opacity:1;fill-rule:nonzero;stroke:none"
       d="m 325.65598,499.02184 -17.81125,0 0,-2.5 17.81125,0 0,2.5 z" />
    <path
       id="path128"
       style="fill:#e74c3c;fill-opacity:1;fill-rule:nonzero;stroke:none"
       d="m 305.44973,499.02184 -5.83375,0 0,-2.5 5.83375,0 0,2.5 z" />
    <path
       id="path130"
       style="fill:#e74c3c;fill-opacity:1;fill-rule:nonzero;stroke:none"
       d="m 296.90723,499.02184 -1.875,0 0,-2.5 1.875,0 0,2.5 z" />
    <g
       transform="matrix(1.25,0,0,-1.25,290.9946,410.99647)"
       id="g132">
      <path
         id="path134"
         style="fill:#2c3e50;fill-opacity:1;fill-rule:nonzero;stroke:none"
         d="m 0,0 -10.28,-58.352 c -0.143,-0.81 -0.619,-1.214 -1.429,-1.214 l -7.728,0 c -0.812,0 -1.146,0.404 -1.002,1.214 l 4.375,24.834 -5.731,0 -4.375,-24.834 c -0.143,-0.81 -0.62,-1.214 -1.43,-1.214 l -7.728,0 c -0.811,0 -1.144,0.404 -1.002,1.214 L -26.049,0 c 0.143,0.809 0.619,1.215 1.43,1.215 l 7.728,0 c 0.81,0 1.144,-0.406 1.001,-1.215 l -4.115,-23.357 5.731,0 L -10.159,0 c 0.142,0.809 0.618,1.215 1.43,1.215 l 7.729,0 C -0.191,1.215 0.143,0.809 0,0" />
    </g>
    <g
       transform="matrix(1.25,0,0,-1.25,328.5496,410.99647)"
       id="g136">
      <path
         id="path138"
         style="fill:#2c3e50;fill-opacity:1;fill-rule:nonzero;stroke:none"
         d="m 0,0 -1.361,-7.729 c -0.143,-0.81 -0.62,-1.214 -1.43,-1.214 l -6.165,0 -8.705,-49.409 c -0.142,-0.81 -0.619,-1.214 -1.429,-1.214 l -7.728,0 c -0.291,0 -0.545,0.115 -0.765,0.347 -0.219,0.231 -0.299,0.52 -0.237,0.867 l 8.705,49.409 -6.078,0 c -0.811,0 -1.144,0.404 -1.002,1.214 L -24.833,0 c 0.143,0.809 0.619,1.215 1.429,1.215 l 22.403,0 C -0.191,1.215 0.143,0.809 0,0" />
    </g>
    <g
       transform="matrix(1.25,0,0,-1.25,365.01923,410.99647)"
       id="g140">
      <path
         id="path142"
         style="fill:#2c3e50;fill-opacity:1;fill-rule:nonzero;stroke:none"
         d="m 0,0 -1.362,-7.729 c -0.142,-0.81 -0.619,-1.214 -1.43,-1.214 l -6.164,0 -8.705,-49.409 c -0.143,-0.81 -0.62,-1.214 -1.43,-1.214 l -7.728,0 c -0.29,0 -0.545,0.115 -0.764,0.347 -0.22,0.231 -0.299,0.52 -0.238,0.867 l 8.705,49.409 -6.078,0 c -0.811,0 -1.144,0.404 -1.001,1.214 L -24.834,0 c 0.143,0.809 0.619,1.215 1.43,1.215 l 22.403,0 C -0.192,1.215 0.143,0.809 0,0" />
    </g>
    <g
       transform="matrix(1.25,0,0,-1.25,389.1556,423.69672)"
       id="g144">
      <path
         id="path146"
         style="fill:#2c3e50;fill-opacity:1;fill-rule:nonzero;stroke:none"
         d="m 0,0 c 0.103,0.578 -0.014,1.07 -0.347,1.477 -0.335,0.404 -0.791,0.607 -1.369,0.607 l -2.78,0 -3.074,-17.453 2.778,0 c 0.579,0 1.107,0.203 1.584,0.607 0.476,0.405 0.766,0.899 0.868,1.477 L 0,0 Z m 1.223,11.375 c 1.505,0 2.871,-0.291 4.102,-0.867 C 6.554,9.928 7.573,9.146 8.385,8.162 9.195,7.178 9.772,6.02 10.118,4.689 10.46,3.357 10.501,1.939 10.236,0.434 L 7.743,-13.719 c -0.266,-1.506 -0.806,-2.924 -1.618,-4.256 -0.815,-1.332 -1.8,-2.488 -2.957,-3.472 -1.158,-0.985 -2.453,-1.766 -3.886,-2.344 -1.434,-0.58 -2.903,-0.869 -4.408,-0.869 l -4.081,0 -4.146,-23.531 c -0.143,-0.811 -0.619,-1.215 -1.429,-1.215 l -7.728,0 c -0.812,0 -1.145,0.404 -1.002,1.215 l 10.28,58.351 c 0.143,0.809 0.619,1.215 1.43,1.215 l 13.025,0 z" />
    </g>
    <g
       transform="matrix(1.25,0,0,-1.25,394.33873,485.45446)"
       id="g148">
      <path
         id="path150"
         style="fill:#2c3e50;fill-opacity:1;fill-rule:nonzero;stroke:none"
         d="m 0,0 c -0.811,0 -1.033,0.375 -0.67,1.129 l 28.372,58.523 c 0.364,0.752 0.951,1.129 1.762,1.129 l 4.689,0 c 0.348,0 0.585,-0.131 0.713,-0.39 0.127,-0.26 0.108,-0.536 -0.059,-0.825 L 6.45,1.129 C 6.086,0.375 5.499,0 4.689,0 L 0,0 Z" />
    </g>
    <g
       transform="matrix(1.25,0,0,-1.25,454.65798,458.56484)"
       id="g152">
      <path
         id="path154"
         style="fill:#2c3e50;fill-opacity:1;fill-rule:nonzero;stroke:none"
         d="m 0,0 c -0.224,-0.289 -0.445,-0.561 -0.663,-0.82 -0.219,-0.26 -0.44,-0.534 -0.663,-0.821 -1.108,-1.382 -2.057,-2.677 -2.845,-3.886 -0.79,-1.211 -1.438,-2.278 -1.945,-3.198 -0.587,-1.037 -1.111,-2.046 -1.57,-3.023 l 13.391,0 c 0.519,0 0.732,-0.262 0.641,-0.779 L 4.9,-20.734 c -0.092,-0.52 -0.397,-0.778 -0.915,-0.778 l -22.809,0 c -0.403,0 -0.617,0.258 -0.64,0.778 0.02,1.093 0.109,2.173 0.268,3.238 0.158,1.066 0.343,2.031 0.553,2.894 0.24,1.038 0.528,2.018 0.863,2.938 0.308,1.096 0.692,2.131 1.153,3.111 0.46,0.979 0.905,1.871 1.336,2.68 0.508,0.92 1.029,1.756 1.564,2.504 1.975,2.707 3.806,5.098 5.497,7.172 1.69,2.072 3.186,3.857 4.486,5.355 1.515,1.729 2.901,3.227 4.161,4.492 0.399,0.635 0.621,1.239 0.666,1.817 0.043,0.574 0.195,1.437 0.457,2.592 l 1.795,10.193 c 0.102,0.576 -0.014,1.066 -0.345,1.469 -0.333,0.402 -0.787,0.605 -1.363,0.605 l -0.691,0 c -0.576,0 -1.102,-0.203 -1.576,-0.605 -0.474,-0.403 -0.761,-0.893 -0.863,-1.469 l -1.004,-5.703 c -0.142,-0.805 -0.609,-1.324 -1.397,-1.555 l -8.228,-2.072 c -0.79,-0.233 -1.114,0.057 -0.971,0.865 l 1.568,8.899 c 0.264,1.496 0.8,2.906 1.61,4.232 0.809,1.324 1.789,2.475 2.942,3.455 1.15,0.979 2.44,1.756 3.867,2.334 1.425,0.574 2.887,0.863 4.386,0.863 l 3.282,0 c 1.498,0 2.857,-0.289 4.082,-0.863 1.222,-0.578 2.237,-1.355 3.045,-2.334 0.805,-0.98 1.38,-2.131 1.723,-3.455 0.342,-1.326 0.382,-2.736 0.119,-4.232 L 12.607,23.5 11.708,18.402 C 11.395,16.617 10.874,14.889 10.147,13.219 9.421,11.549 8.436,9.965 7.194,8.469 6.086,7.086 4.9,5.674 3.639,4.234 2.377,2.793 1.164,1.383 0,0" />
    </g>
  </g>
</svg>
